<?xml version="1.0" encoding="UTF-8" standalone="no"?>
<svg
   xmlns:dc="http://purl.org/dc/elements/1.1/"
   xmlns:cc="http://creativecommons.org/ns#"
   xmlns:rdf="http://www.w3.org/1999/02/22-rdf-syntax-ns#"
   xmlns:svg="http://www.w3.org/2000/svg"
   xmlns="http://www.w3.org/2000/svg"
   xmlns:sodipodi="http://sodipodi.sourceforge.net/DTD/sodipodi-0.dtd"
   xmlns:inkscape="http://www.inkscape.org/namespaces/inkscape"
   width="32mm"
   height="32mm"
   viewBox="0 0 32 32"
   version="1.1"
   id="svg8"
   inkscape:version="1.0.1 (3bc2e813f5, 2020-09-07)"
   sodipodi:docname="logo.svg">
  <defs
     id="defs2">
    <rect
       x="8.5989583"
       y="8.3154762"
       width="19.84375"
       height="18.331845"
       id="rect835" />
    <rect
       x="8.598958"
       y="8.3154764"
       width="19.84375"
       height="18.331844"
       id="rect835-6" />
    <rect
       x="8.598958"
       y="8.3154764"
       width="19.84375"
       height="18.331844"
       id="rect850" />
  </defs>
  <sodipodi:namedview
     id="base"
     pagecolor="#ffffff"
     bordercolor="#666666"
     borderopacity="1.0"
     inkscape:pageopacity="0.0"
     inkscape:pageshadow="2"
     inkscape:zoom="2.8"
     inkscape:cx="140.09145"
     inkscape:cy="117.88987"
     inkscape:document-units="mm"
     inkscape:current-layer="layer1"
     inkscape:document-rotation="0"
     showgrid="false"
     inkscape:window-width="1500"
     inkscape:window-height="860"
     inkscape:window-x="84"
     inkscape:window-y="0"
     inkscape:window-maximized="0" />
  <metadata
     id="metadata5">
    <rdf:RDF>
      <cc:Work
         rdf:about="">
        <dc:format>image/svg+xml</dc:format>
        <dc:type
           rdf:resource="http://purl.org/dc/dcmitype/StillImage" />
        <dc:title></dc:title>
      </cc:Work>
    </rdf:RDF>
  </metadata>
  <g
     inkscape:label="Слой 1"
     inkscape:groupmode="layer"
     id="layer1">
    <rect
       style="opacity:1;fill:#3c8f7d;fill-opacity:1;stroke:#323232;stroke-width:0.529167;stroke-linecap:round;stroke-linejoin:round;stroke-miterlimit:4;stroke-dasharray:none;stroke-dashoffset:0;stroke-opacity:1"
       id="rect839"
       width="31.470833"
       height="31.470833"
       x="0.26458359"
       y="0.26458359" />
    <g
       aria-label="GT"
       transform="matrix(1.6007646,0,0,2.4267183,-12.238084,-18.533439)"
       id="text833-1-0"
       style="font-style:normal;font-weight:normal;font-size:10.5833px;line-height:1.25;font-family:sans-serif;white-space:pre;shape-inside:url(#rect835-6);fill:#323232;fill-opacity:1;stroke:none;stroke-width:0.507372">
      <path
         d="m 17.766979,13.527712 -0.764808,0.728636 0.310057,2.687166 q -0.857826,0.635618 -1.777663,0.950843 -0.919838,0.310058 -1.927525,0.310058 -0.821653,0 -1.591629,-0.237711 -0.769977,-0.237711 -1.41593,-0.692462 -0.8474909,-0.604613 -1.3074096,-1.441768 -0.4599188,-0.842323 -0.4599188,-1.787999 0,-0.883664 0.4082425,-1.6123 0.4134101,-0.733803 1.1885539,-1.235062 0.723468,-0.470254 1.601965,-0.702798 0.883664,-0.23771 1.922357,-0.23771 0.769976,0 1.45727,0.186034 0.692462,0.180867 1.255734,0.532266 l 0.253213,-0.69763 0.403075,2.806021 q -0.666623,-0.795814 -1.353918,-1.167883 -0.682127,-0.377237 -1.462438,-0.377237 -1.054196,0 -1.700149,0.69763 -0.640786,0.697629 -0.640786,1.85001 0,1.02319 0.594277,1.663976 0.594277,0.635618 1.54512,0.635618 0.02067,0 0.129191,-0.0052 0.10852,-0.01033 0.186035,-0.0155 l 0.454751,-1.503779 -1.09037,0.124023 -0.335895,0.635618 -0.139526,-3.162587 0.532265,0.73897 z"
         style="font-style:normal;font-variant:normal;font-weight:normal;font-stretch:normal;font-family:'Snap ITC';-inkscape-font-specification:'Snap ITC';fill:#323232;fill-opacity:1;stroke-width:0.507372"
         id="path870-3" />
      <path
         d="m 26.448592,10.256605 -2.506299,4.89891 -0.325561,-3.736194 -1.441767,5.72573 2.191073,1.049028 -4.733546,-0.253213 1.52445,-0.475422 -1.731155,-6.149476 -0.490924,4.516506 -1.012855,-5.002263 z"
         style="font-style:normal;font-variant:normal;font-weight:normal;font-stretch:normal;font-family:'Snap ITC';-inkscape-font-specification:'Snap ITC';fill:#323232;fill-opacity:1;stroke-width:0.507372"
         id="path872-5" />
    </g>
  </g>
</svg>
