<?xml version="1.0" encoding="UTF-8" standalone="no"?>
<svg
   xmlns:dc="http://purl.org/dc/elements/1.1/"
   xmlns:cc="http://creativecommons.org/ns#"
   xmlns:rdf="http://www.w3.org/1999/02/22-rdf-syntax-ns#"
   xmlns:svg="http://www.w3.org/2000/svg"
   xmlns="http://www.w3.org/2000/svg"
   xmlns:sodipodi="http://sodipodi.sourceforge.net/DTD/sodipodi-0.dtd"
   xmlns:inkscape="http://www.inkscape.org/namespaces/inkscape"
   width="32mm"
   height="32mm"
   viewBox="0 0 32 32"
   version="1.1"
   id="svg8"
   inkscape:version="1.0.1 (3bc2e813f5, 2020-09-07)"
   sodipodi:docname="logo.svg">
  <defs
     id="defs2">
    <rect
       x="-22.111607"
       y="0.47247024"
       width="7.2760417"
       height="14.079613"
       id="rect853" />
    <rect
       x="-5.3861607"
       y="8.1264881"
       width="14.363095"
       height="16.914435"
       id="rect847" />
    <rect
       x="8.5989583"
       y="8.3154762"
       width="19.84375"
       height="18.331845"
       id="rect835" />
    <rect
       x="8.598958"
       y="8.3154764"
       width="19.84375"
       height="18.331844"
       id="rect835-6" />
    <rect
       x="8.598958"
       y="8.3154764"
       width="19.84375"
       height="18.331844"
       id="rect850" />
    <rect
       x="-5.3861609"
       y="8.1264877"
       width="14.363095"
       height="16.914434"
       id="rect847-9" />
    <rect
       x="-5.3861609"
       y="8.1264877"
       width="14.363095"
       height="16.914434"
       id="rect866" />
    <rect
       x="-5.3861609"
       y="8.1264877"
       width="14.363095"
       height="16.914434"
       id="rect847-7" />
    <rect
       x="-5.3861609"
       y="8.1264877"
       width="14.363095"
       height="16.914434"
       id="rect895" />
  </defs>
  <sodipodi:namedview
     id="base"
     pagecolor="#ffffff"
     bordercolor="#666666"
     borderopacity="1.0"
     inkscape:pageopacity="0.0"
     inkscape:pageshadow="2"
     inkscape:zoom="2.8"
     inkscape:cx="31.520021"
     inkscape:cy="70.38987"
     inkscape:document-units="mm"
     inkscape:current-layer="layer1"
     inkscape:document-rotation="0"
     showgrid="false"
     inkscape:window-width="1500"
     inkscape:window-height="860"
     inkscape:window-x="84"
     inkscape:window-y="0"
     inkscape:window-maximized="0" />
  <metadata
     id="metadata5">
    <rdf:RDF>
      <cc:Work
         rdf:about="">
        <dc:format>image/svg+xml</dc:format>
        <dc:type
           rdf:resource="http://purl.org/dc/dcmitype/StillImage" />
        <dc:title />
      </cc:Work>
    </rdf:RDF>
  </metadata>
  <g
     inkscape:label="Слой 1"
     inkscape:groupmode="layer"
     id="layer1">
    <text
       xml:space="preserve"
       id="text851"
       style="fill:black;fill-opacity:1;line-height:1.25;stroke:none;font-family:sans-serif;font-style:normal;font-weight:normal;font-size:10.58333333px;white-space:pre;shape-inside:url(#rect853);" />
    <g
       id="g925"
       transform="matrix(3.0114176,0,0,2.6782819,18.212574,-25.965098)"
       style="stroke-width:0.352116">
      <g
         aria-label="G"
         transform="translate(-0.83547995,-0.0094287)"
         id="text845-5"
         style="font-style:normal;font-weight:normal;font-size:10.5833px;line-height:1.25;font-family:sans-serif;white-space:pre;shape-inside:url(#rect847-7);fill:#241c1c;fill-opacity:1;stroke:none;stroke-width:0.352116">
        <path
           d="M -1.0924209,14.997067 V 13.720664 H 2.204525 v 3.017894 q -0.4805893,0.465086 -1.39525925,0.821652 -0.90950231,0.351399 -1.84484275,0.351399 -1.1885542,0 -2.0722183,-0.496092 -0.8836642,-0.50126 -1.3280801,-1.426265 -0.4444159,-0.930173 -0.4444159,-2.020542 0,-1.183387 0.4960921,-2.103224 0.4960922,-0.919838 1.4521032,-1.410763 0.7286353,-0.377236 1.813837,-0.377236 1.41076208,0 2.201409,0.594277 0.7958145,0.589109 1.0231901,1.63297 L 0.5870578,12.588953 Q 0.42686137,12.03085 -0.01755453,11.710457 -0.45680281,11.384896 -1.118259,11.384896 q -1.0025196,0 -1.5967967,0.635618 -0.5891095,0.635618 -0.5891095,1.886184 0,1.348751 0.5994447,2.02571 0.5994448,0.671791 1.5709586,0.671791 0.48058928,0 0.96117857,-0.186034 0.48575691,-0.191202 0.83198791,-0.459919 v -0.961179 z"
           style="font-style:normal;font-variant:normal;font-weight:bold;font-stretch:normal;font-family:Arial;-inkscape-font-specification:'Arial Bold';fill:#241c1c;stroke-width:0.352116"
           id="path918" />
      </g>
      <g
         aria-label="T"
         transform="translate(2.630899,3.4868511)"
         id="text845-2"
         style="font-style:normal;font-weight:normal;font-size:10.5833px;line-height:1.25;font-family:sans-serif;white-space:pre;shape-inside:url(#rect847-9);fill:#483737;fill-opacity:1;stroke:none;stroke-width:0.352116">
        <path
           d="m 1.6154155,11.576098 h -2.40294642 v 6.20632 H -2.7718996 v -6.20632 h -2.4029465 v -1.488276 h 6.7902616 z"
           style="font-style:normal;font-variant:normal;font-weight:bold;font-stretch:normal;font-family:sans-serif;-inkscape-font-specification:'sans-serif Bold';fill:#483737;stroke-width:0.352116"
           id="path915" />
      </g>
    </g>
  </g>
</svg>
